<svg width="86" height="118" xmlns="http://www.w3.org/2000/svg" xmlns:xlink="http://www.w3.org/1999/xlink"><defs><path d="M219.015 222.965c-7.21-7.63-13.516-37.699-13.516-37.699-.927-3.343-.81-7.71 2.52-8.637 3.332-.928 6.815 1.047 7.74 4.392l3.847 14.024-.063-42.619c0-3.468 2.83-6.308 6.286-6.308 3.458 0 6.286 2.84 6.286 6.308v30.516l.043-39.634c0-3.468 2.83-6.308 6.287-6.308 3.46 0 6.286 2.84 6.286 6.308v38.728l.043-31.548c0-3.47 2.83-6.31 6.286-6.31 3.46 0 6.287 2.84 6.287 6.31v30.51l.08-15.514c0-3.47 2.244-6.255 5.2-6.255 2.95 0 5.367 2.84 5.367 6.31 0 0 .014 18.014 0 30.514-.037 29.625-15.076 35.22-27.747 34.937-12.67-.281-17.964-5.03-21.232-8.025z" id="a"/></defs><use stroke="#EF5A28" stroke-width="3.2" fill-opacity=".5" fill="#4F405C" xlink:href="#a" transform="translate(-199 -130)" fill-rule="evenodd" stroke-linejoin="round"/></svg>