<svg width="12" height="12" xmlns="http://www.w3.org/2000/svg"><g fill="#FFF" fill-rule="nonzero"><path d="M11.5 8.5a.5.5 0 0 1 .5.5v2.344c0 .356-.297.656-.625.656H.625C.297 12 0 11.7 0 11.344V9l.008-.09A.5.5 0 0 1 1 9v1.81h9.995V9c.005-.276.229-.5.505-.5Z"/><path d="M5.257 8.684c.224.217.488.316.753.316s.55-.099.754-.316l1.568-1.48c.224-.217.224-.533 0-.73-.224-.217-.55-.217-.754 0L6.54 7.42V.533C6.56.217 6.336 0 6.01 0c-.326 0-.55.217-.55.533V7.42L4.422 6.414c-.224-.217-.55-.217-.754 0-.224.218-.224.533 0 .73l1.589 1.54Z"/></g></svg>