<svg xmlns="http://www.w3.org/2000/svg" viewBox="0 0 35 36" style="enable-background:new 0 0 35 36" xml:space="preserve"><path d="M17.5 0C27.2 0 35 7.8 35 17.5v1C35 28.2 27.2 36 17.5 36S0 28.2 0 18.5v-1C0 7.8 7.8 0 17.5 0z" style="opacity:.1;fill-rule:evenodd;clip-rule:evenodd"/><linearGradient id="a" gradientUnits="userSpaceOnUse" x1="-597.144" y1="522.529" x2="-596.885" y2="522.175" gradientTransform="matrix(33 0 0 -34 19719 17778)"><stop offset="0" style="stop-color:#4f405c"/><stop offset="1" style="stop-color:#8c145a"/></linearGradient><path d="M17.5 36C7.9 36 0 28.1 0 18.5v-1C0 7.9 7.9 0 17.5 0S35 7.9 35 17.5v1C35 28.1 27.1 36 17.5 36zm0-34C9 2 2 9 2 17.5v1C2 27 9 34 17.5 34S33 27 33 18.5v-1C33 9 26 2 17.5 2z" style="fill:url(#a)"/><path d="m18.9 18 3.5-3.5c.4-.4.4-1 0-1.4-.4-.4-1-.4-1.4 0l-3.5 3.5-3.4-3.4c-.4-.4-1-.4-1.4 0-.4.4-.4 1 0 1.4l3.4 3.4-3.5 3.5c-.4.4-.4 1 0 1.4.4.4 1.1.4 1.4 0l3.5-3.5 3.5 3.5c.4.4 1 .4 1.4 0 .4-.5.4-1 0-1.4L18.9 18z" style="fill-rule:evenodd;clip-rule:evenodd;fill:#f2efee"/></svg>