<?xml version="1.0" encoding="utf-8"?>
<!-- Generator: Adobe Illustrator 25.2.1, SVG Export Plug-In . SVG Version: 6.00 Build 0)  -->
<svg version="1.1" id="Ebene_1" xmlns="http://www.w3.org/2000/svg" xmlns:xlink="http://www.w3.org/1999/xlink" x="0px" y="0px"
	 viewBox="0 0 35 36" style="enable-background:new 0 0 35 36;" xml:space="preserve">
<style type="text/css">
	.st0{opacity:0.1;fill-rule:evenodd;clip-rule:evenodd;}
	.st1{fill:url(#SVGID_1_);}
	.st2{fill-rule:evenodd;clip-rule:evenodd;fill:#F2EFEE;}
</style>
<path id="path-3_2_" class="st0" d="M17.5,0L17.5,0C27.2,0,35,7.8,35,17.5v1C35,28.2,27.2,36,17.5,36l0,0C7.8,36,0,28.2,0,18.5v-1
	C0,7.8,7.8,0,17.5,0z"/>
<linearGradient id="SVGID_1_" gradientUnits="userSpaceOnUse" x1="-597.1439" y1="522.5286" x2="-596.8845" y2="522.1746" gradientTransform="matrix(33 0 0 -34 19719 17778)">
	<stop  offset="0" style="stop-color:#4F405C"/>
	<stop  offset="1" style="stop-color:#8C145A"/>
</linearGradient>
<path class="st1" d="M17.5,36C7.9,36,0,28.1,0,18.5v-1C0,7.9,7.9,0,17.5,0S35,7.9,35,17.5v1C35,28.1,27.1,36,17.5,36z M17.5,2
	C9,2,2,9,2,17.5v1C2,27,9,34,17.5,34S33,27,33,18.5v-1C33,9,26,2,17.5,2z"/>
<path class="st2" d="M18.9,18l3.5-3.5c0.4-0.4,0.4-1,0-1.4c-0.4-0.4-1-0.4-1.4,0l-3.5,3.5l-3.4-3.4c-0.4-0.4-1-0.4-1.4,0
	c-0.4,0.4-0.4,1,0,1.4l3.4,3.4l-3.5,3.5c-0.4,0.4-0.4,1,0,1.4c0.4,0.4,1.1,0.4,1.4,0l3.5-3.5l3.5,3.5c0.4,0.4,1,0.4,1.4,0
	c0.4-0.5,0.4-1,0-1.4L18.9,18z"/>
</svg>
