<svg width="12" height="10" xmlns="http://www.w3.org/2000/svg"><g fill="#F2EFEE" fill-rule="nonzero"><path d="M1.73 5.048a.4.4 0 0 1-.085 0 .585.585 0 0 1-.386-.228.585.585 0 0 1-.108-.433A4.99 4.99 0 0 1 6.065.125h.137a4.973 4.973 0 0 1 4.35 2.834.603.603 0 0 1 0 .498.585.585 0 0 1-1.062.006 3.803 3.803 0 0 0-3.323-2.168h-.1a3.823 3.823 0 0 0-3.76 3.253.585.585 0 0 1-.577.5Z"/><path d="M1.724 5.267a.585.585 0 0 1-.512-.292L.083 3.243a.585.585 0 0 1 .512-.886c.211-.002.407.11.512.292L1.9 3.82l1.225-.994a.585.585 0 1 1 .638.98L2.061 5.147a.585.585 0 0 1-.34.111l.003.01ZM5.799 9.97a4.973 4.973 0 0 1-4.35-2.834.585.585 0 0 1 0-.494.585.585 0 0 1 .533-.345.585.585 0 0 1 .514.34A3.803 3.803 0 0 0 5.831 8.8h.097a3.823 3.823 0 0 0 3.767-3.25.585.585 0 0 1 .585-.503h.088a.585.585 0 0 1 .491.664 4.993 4.993 0 0 1-4.914 4.256L5.8 9.97Z"/><path d="M11.415 7.739a.585.585 0 0 1-.512-.293l-.793-1.17-1.222.995h-.015a.585.585 0 1 1-.638-.983l1.703-1.343c.1-.069.218-.107.34-.108.21-.002.406.11.511.293l1.129 1.72a.585.585 0 0 1-.22.81.603.603 0 0 1-.283.079Z"/></g></svg>