<svg width="26" height="26" xmlns="http://www.w3.org/2000/svg"><path d="M21.697 2.99h-2.695v-.403c0-.862-.787-1.617-1.686-1.617H15.03C14.993.395 14.58 0 13.981 0c-.6 0-1.011.395-1.011.97h-2.286c-.9 0-1.686.755-1.686 1.618v.401H6.356c-.712 0-1.312.461-1.312 1.144V24.67c0 .755.6 1.33 1.387 1.33h15.266c.412 0 .787-.18 1.012-.467.187-.288.3-.575.3-.863V4.133c-.038-.683-.637-1.144-1.312-1.144zM11 3h6v2h-6V3zm9.963 20.971H7.108V5h1.904v.413C9.012 6.26 9.8 7 10.7 7h6.6c.9 0 1.688-.74 1.688-1.586V5h1.975v18.971z" fill="#F2EFEE"/></svg>
