<svg width="20" height="19" xmlns="http://www.w3.org/2000/svg"><path d="m19.037 7.855-.918-.917.219-.219c.469-.469.452-1.307-.038-1.796l-1.243-1.244c.292-.333.283-.772-.043-1.098-.326-.326-.765-.335-1.078-.023l-1.243-1.243c-.49-.49-1.328-.507-1.797-.038l-.218.219-.918-.917c-.387-.387-.964-.463-1.335-.091l-9.54 9.539c-.41.41-.396 1.049.032 1.477l7.235 7.235c.224.225.526.33.805.297.258-.055.475-.15.632-.306l9.539-9.54c.35-.391.275-.968-.091-1.335zM13.76 2.591l3.263 3.264-1.087 1.087-3.264-3.263 1.088-1.088zM8.865 17.277 2.338 10.75l8.703-8.703.55.55-.224.225c-.46.46-.434 1.291.055 1.781l3.59 3.59c.49.49 1.32.515 1.78.055l.226-.225.55.551-8.703 8.703z" fill="#F2EFEE"/></svg>
