<svg width="49" height="42" xmlns="http://www.w3.org/2000/svg"><g fill="none" fill-rule="evenodd"><path d="m43.738 21.537 4.852-4.84a1.392 1.392 0 0 0 0-1.973 1.402 1.402 0 0 0-1.98 0l-2.625 2.618C42.672 7.57 34.277 0 24.123 0 15.798 0 8.245 5.221 5.327 12.994c-.06.16-.089.326-.089.49 0 .72.565 1.389 1.423 1.4.588.009 1.095-.401 1.302-.95 2.522-6.667 9.01-11.142 16.16-11.142 8.432 0 15.46 6.064 16.956 14.048l-2.102-2.098c-.382-.38-.957-.559-1.46-.363-.632.246-.947.788-.947 1.332 0 .357.136.715.41.986l4.852 4.84a1.35 1.35 0 0 0 1.906 0" fill="#8AAFE5"/><path d="M5.262 20.463.41 25.303a1.392 1.392 0 0 0 0 1.973 1.402 1.402 0 0 0 1.98 0l2.625-2.618C6.328 34.43 14.723 42 24.877 42c8.325 0 15.878-5.221 18.796-12.994.06-.16.089-.326.089-.49 0-.72-.565-1.389-1.423-1.4-.588-.009-1.095.401-1.302.95-2.522 6.667-9.01 11.142-16.16 11.142-8.432 0-15.46-6.064-16.956-14.048l2.102 2.098c.382.38.957.559 1.46.363.632-.246.947-.788.947-1.332 0-.357-.136-.715-.41-.986l-4.852-4.84a1.35 1.35 0 0 0-1.906 0" fill="#FF6500"/><path d="M24.169 10.896c-5.523 0-10 4.477-10 10s4.477 10 10 10 10-4.477 10-10-4.477-10-10-10Zm4.218 15.876a.25.25 0 0 1-.221.374h-1.837a.254.254 0 0 1-.221-.13l-3.328-6.06-.15-.278.06.278.694 3.172v2.765c0 .14-.114.253-.254.253H21.51a.254.254 0 0 1-.254-.253v-5.937H19.73a.31.31 0 0 1 0-.62h1.526v-5.437c0-.14.114-.253.254-.253h1.619c.14 0 .253.113.253.253v4.408l2.488-4.532a.254.254 0 0 1 .223-.13h1.837a.25.25 0 0 1 .222.372l-2.923 5.319h2.88a.31.31 0 1 1 0 .62h-2.915l3.194 5.816Z" fill="#8AAFE5" fill-rule="nonzero"/></g></svg>