<svg width="24" height="23" xmlns="http://www.w3.org/2000/svg" xmlns:xlink="http://www.w3.org/1999/xlink"><defs><path id="a" d="M0 0h24v14.658H0z"/></defs><g fill="none" fill-rule="evenodd"><path d="M19.972 18.97a4 4 0 1 1-8 0 4 4 0 0 1 8 0" fill="#FEFEFE"/><g><mask id="b" fill="#fff"><use xlink:href="#a"/></mask><path d="M22.597.783c-.361-.285-.792-.674-1.576-.77-.737-.098-1.487.395-1.993.721-.507.327-1.466 1.285-1.862 1.577-.395.291-1.409.562-3.041 1.541-1.632.98-8.035 5.091-8.035 5.091l1.667.021L.326 12.79h.743L0 13.602s.944.25 1.736-.25v.23s8.847-3.487 10.555-2.584l-1.041.306c.09 0 1.771.111 1.771.111a2.38 2.38 0 0 0 1.069 1.722c1.014.667 1.035 1.035 1.035 1.035s-.528.215-.528.486c0 0 .778-.236 1.5-.215a5.7 5.7 0 0 1 1.354.215s-.055-.292-.757-.486c-.701-.195-1.396-.958-1.736-1.375a1.946 1.946 0 0 1-.285-1.903c.243-.632 1.091-.979 2.841-1.882 2.062-1.069 2.534-1.86 2.826-2.479.292-.618.722-1.847.965-2.424.306-.743.681-1.139.993-1.375.313-.236 1.702-.757 1.702-.757s-1.063-.923-1.403-1.194" fill="#FEFEFE" mask="url(#b)"/></g></g></svg>