<svg height="26" width="27" xmlns="http://www.w3.org/2000/svg"><g fill="none" fill-rule="evenodd"><g fill-rule="nonzero"><path d="m.413 12.015 11.394 2.098 4.032 11.552L4.282 23.54z"/><g fill="#fff"><path d="m.82 12.378 10.786 1.985 3.804 10.94-10.927-2.014zM0 11.641l4.075 12.136 12.014 2.212.108-.136-4.189-11.995z"/><path d="m.51 11.46 7.358-9.154 11.742 2.16 4.08 11.7-7.384 9.182-4.091-11.74z"/><path d="m7.971 2.618 11.41 2.104 3.983 11.388-6.966 8.682-3.9-11.127-.082-.323-.31-.057-11.084-2.041zM7.759 2 0 11.64l12.008 2.207 4.19 12.006-.11.136h.044L24 16.223 19.81 4.217zM4.075 23.788 16.09 26z"/></g></g><circle cx="20" cy="7" fill="#172a40" r="7"/><circle cx="20" cy="7" fill="#ff6500" r="5"/></g></svg>