<svg width="64" height="64" xmlns="http://www.w3.org/2000/svg"><g fill="none" fill-rule="evenodd"><circle cx="32" cy="32" r="30" stroke="#FF6500" stroke-width="4"/><g fill="#FF6500" fill-rule="nonzero"><path d="M32 17c2.104 0 3.77.536 5 1.607l-2.258 18.41C34.002 36.339 33.1 36 32.038 36c-1.034 0-1.91.294-2.625.883L27 18.607C28.23 17.536 29.896 17 32 17ZM32.038 47c-1.117 0-2.07-.401-2.857-1.204C28.394 44.994 28 44.05 28 42.961c0-1.139.381-2.084 1.143-2.835.762-.75 1.727-1.126 2.895-1.126 1.118 0 2.057.375 2.82 1.126.761.751 1.142 1.696 1.142 2.835 0 1.088-.381 2.033-1.143 2.835C34.095 46.6 33.156 47 32.038 47Z"/></g></g></svg>