<svg width="27" height="17" xmlns="http://www.w3.org/2000/svg"><g fill="none" fill-rule="evenodd"><path d="M12.175 4.138V.85c0-.468.383-.85.85-.85.468 0 .851.382.851.85v3.288c0 .468-.383.85-.85.85a.852.852 0 0 1-.85-.85zM6.919 5.63 5.582 2.627a.852.852 0 0 1 .43-1.122.853.853 0 0 1 1.123.43L8.472 4.94a.852.852 0 0 1-.431 1.122.852.852 0 0 1-1.122-.43zM2.724 9.133.28 6.933A.851.851 0 0 1 1.418 5.67l2.444 2.2a.853.853 0 0 1 .063 1.2.853.853 0 0 1-1.201.063zM22.211 7.82l2.444-2.2a.851.851 0 0 1 1.138 1.263l-2.445 2.2a.852.852 0 0 1-1.2-.062.854.854 0 0 1 .063-1.201zm-4.627-2.908 1.337-3.003a.852.852 0 0 1 1.123-.43c.427.19.62.694.431 1.121l-1.338 3.004a.852.852 0 0 1-1.122.431.853.853 0 0 1-.43-1.123zm-4.592 7.151c-.481 0-.812-.33-.812-.812 0-.481.331-.813.812-.813.481 0 .812.332.812.813 0 .482-.331.813-.812.813m0-3.22a2.376 2.376 0 0 0-2.407 2.408 2.376 2.376 0 0 0 2.407 2.406 2.376 2.376 0 0 0 2.407-2.406 2.376 2.376 0 0 0-2.407-2.409" fill="#F2EFEE"/><path d="M12.992 15.343c-3.22 0-6.108-1.535-7.854-4.092a9.577 9.577 0 0 1 7.854-4.093c3.219 0 6.107 1.535 7.853 4.093-1.746 2.557-4.634 4.092-7.853 4.092m0-9.719c-3.852 0-7.372 1.926-9.479 5.145-.15.331-.15.722 0 .963a11.238 11.238 0 0 0 9.479 5.145c3.852 0 7.371-1.926 9.478-5.145.241-.33.241-.632 0-.963a11.236 11.236 0 0 0-9.478-5.145z" fill="#F2EFEE"/></g></svg>
