<svg width="20" height="10" xmlns="http://www.w3.org/2000/svg"><g fill="none" fill-rule="evenodd"><path d="M9.648 6.187a.642.642 0 0 0-.63.65v2.515c0 .356.284.65.63.65.347 0 .63-.294.63-.65V6.837a.642.642 0 0 0-.63-.65m-3.691-.821a.625.625 0 0 0-.832.33l-.99 2.297a.66.66 0 0 0 .319.858.624.624 0 0 0 .83-.33l.992-2.297a.66.66 0 0 0-.32-.858M2.907 3.067a.617.617 0 0 0-.89-.049L.208 4.702a.668.668 0 0 0-.046.918.618.618 0 0 0 .89.048l1.81-1.683a.666.666 0 0 0 .046-.917M16.406 3.104a.667.667 0 0 0 .046.917l1.81 1.683a.62.62 0 0 0 .89-.048.668.668 0 0 0-.047-.918l-1.81-1.683a.617.617 0 0 0-.889.049M13.345 5.387a.66.66 0 0 0-.32.858l.992 2.297c.14.327.514.475.83.33a.66.66 0 0 0 .32-.858l-.99-2.298a.624.624 0 0 0-.832-.33m3.358-3.589c-.003.01.004.023-.003.033-1.598 2.625-4.078 3.805-7.041 3.805-2.893 0-5.337-1.207-6.96-3.704-.01-.011-.016-.026-.026-.037-.031-.05-.068-.091-.1-.142 0-.003.003-.006.002-.009a.645.645 0 0 1-.063-.272c0-.358.28-.647.627-.647a.61.61 0 0 1 .467.226l.009-.003C4.98 3.133 7.25 4.384 9.659 4.384c2.477 0 4.7-1.251 6.043-3.337l.005.002a.612.612 0 0 1 .467-.225c.346 0 .627.289.627.647 0 .12-.042.229-.098.326" fill="#F2EFEE"/></g></svg>
