<svg width="24" height="24" xmlns="http://www.w3.org/2000/svg"><g fill="#FFF" fill-rule="nonzero"><path d="M12 0c6.627 0 12 5.373 12 12s-5.373 12-12 12S0 18.627 0 12 5.373 0 12 0Zm0 2C6.477 2 2 6.477 2 12s4.477 10 10 10 10-4.477 10-10S17.523 2 12 2Z"/><path d="M12 5a1 1 0 0 1 .993.883L13 6v10.5a1 1 0 0 1-1.993.117L11 16.5V6a1 1 0 0 1 1-1Z"/><path d="M12.765 18.494a1 1 0 0 1-1.327.077l-.087-.077-2.855-2.856a1 1 0 0 1 1.327-1.492l.087.078 2.149 2.149 2.084-2.085a1 1 0 0 1 1.327-.078l.087.078a1 1 0 0 1 .078 1.327l-.078.087-2.792 2.792Z"/></g></svg>