<svg width="12" height="12" xmlns="http://www.w3.org/2000/svg"><path d="M6 0a6 6 0 1 1 0 12A6 6 0 0 1 6 0Zm.544 4.926H6.28l-1.49.242-.057.176c.092-.005.092-.005.158-.005.145 0 .145 0 .229.075.083.075.083.075.083.171 0 .123 0 .123-.056.342l-.032.115-.61 2.101c-.075.25-.075.25-.075.413 0 .246 0 .246.17.407.168.16.168.16.454.16.69 0 .69 0 1.308-.985l.103-.17-.15-.089c-.277.427-.277.427-.474.59-.075.065-.075.065-.15.065-.044 0-.044 0-.083-.042-.04-.041-.04-.041-.04-.09 0-.066 0-.066.048-.251l.027-.1.9-3.125ZM6.27 2.905c-.268 0-.268 0-.455.189-.186.189-.186.189-.186.457s0 .268.189.457.189.189.452.189c.268 0 .268 0 .457-.19.19-.188.19-.188.19-.456s0-.268-.188-.457c-.186-.19-.186-.19-.459-.19Z" fill="#F00" fill-opacity="0.5" fill-rule="evenodd"/></svg>
