<svg width="206" height="124" xmlns="http://www.w3.org/2000/svg" xmlns:xlink="http://www.w3.org/1999/xlink"><defs><path d="m.713.372.12 2.301 4.306-.225.307 5.893c.072 1.369-.469 2.083-1.625 2.144-.851.044-1.634-.37-2.346-1.244L0 11.235c.474.555 1.066.97 1.776 1.246.711.277 1.48.393 2.309.35 1.446-.075 2.523-.514 3.23-1.314.707-.8 1.02-1.961.941-3.483L7.836 0 .713.372Z" id="a"/><path d="M5.129.014c-1.154.061-2.123.28-2.905.658C1.442 1.051.868 1.538.5 2.133a3.315 3.315 0 0 0-.495 1.954c.043.813.297 1.451.76 1.915.465.464 1.01.79 1.635.978.625.189 1.424.369 2.398.539.633.106 1.136.208 1.508.305.374.096.683.235.927.414a.893.893 0 0 1 .389.704c.02.394-.161.72-.545.979-.385.259-.992.41-1.822.453A7.503 7.503 0 0 1 3 10.143c-.758-.193-1.418-.467-1.98-.822l-.88 2.176c.587.387 1.353.688 2.299.9.946.213 1.918.293 2.916.241 1.155-.061 2.127-.28 2.915-.659.788-.379 1.369-.866 1.742-1.461a3.259 3.259 0 0 0 .505-1.937c-.044-.812-.297-1.445-.76-1.898a3.945 3.945 0 0 0-1.634-.962c-.624-.188-1.424-.367-2.398-.537-.936-.148-1.635-.313-2.097-.492-.462-.18-.703-.478-.725-.896-.022-.417.156-.765.533-1.04.378-.276.976-.435 1.794-.478 1.166-.061 2.35.197 3.55.774L9.57.864C8.974.546 8.287.315 7.507.169A10.071 10.071 0 0 0 5.669 0c-.18 0-.36.004-.54.014Z" id="c"/><path d="M6.506.013C5.21.081 4.058.414 3.046 1.014c-1.011.6-1.785 1.393-2.323 2.382C.185 4.383-.053 5.475.01 6.67c.062 1.195.412 2.256 1.05 3.182.639.926 1.492 1.636 2.56 2.126 1.068.491 2.249.703 3.544.635 1.295-.068 2.446-.401 3.45-1a6.26 6.26 0 0 0 2.324-2.382c.544-.988.785-2.08.723-3.275-.063-1.195-.416-2.256-1.061-3.182A6.244 6.244 0 0 0 10.04.648C9.108.216 8.085 0 6.97 0a8.06 8.06 0 0 0-.464.013ZM5.016 9.82a3.602 3.602 0 0 1-1.47-1.311c-.37-.574-.574-1.238-.613-1.992-.04-.754.094-1.436.402-2.045.308-.61.75-1.095 1.327-1.457.575-.362 1.233-.562 1.97-.6.736-.039 1.41.091 2.02.391.612.3 1.103.736 1.472 1.311.37.574.574 1.238.613 1.992.04.754-.094 1.436-.402 2.045a3.606 3.606 0 0 1-1.327 1.457c-.575.362-1.233.562-1.97.6a4.196 4.196 0 0 1-.25.007c-.64 0-1.23-.133-1.771-.398Z" id="e"/><path id="g" d="m8.671.152.401 7.65L2.41.478 0 .605l.659 12.6 2.878-.15-.4-7.651 6.679 7.323 2.393-.126L11.55 0z"/><path d="M4.671.219c-1.138.294-2.103.84-2.895 1.64C.984 2.658.451 3.64.178 4.804-.095 5.97-.054 7.086.3 8.153c.355 1.069.976 1.987 1.866 2.756.888.769 1.964 1.301 3.226 1.598 1.263.296 2.46.296 3.593 0a6.246 6.246 0 0 0 2.895-1.639c.798-.798 1.333-1.779 1.607-2.944.272-1.165.23-2.282-.132-3.351a6.249 6.249 0 0 0-1.864-2.755C10.608 1.05 9.535.518 8.272.222A8.136 8.136 0 0 0 6.418 0c-.597 0-1.18.073-1.747.219Zm1.27 9.946c-.718-.169-1.328-.482-1.832-.94a3.61 3.61 0 0 1-1.048-1.669c-.194-.654-.206-1.349-.033-2.084.172-.735.49-1.353.956-1.852a3.607 3.607 0 0 1 1.68-1.029c.654-.187 1.341-.196 2.06-.028.717.169 1.328.482 1.832.94a3.592 3.592 0 0 1 1.047 1.669c.195.654.206 1.349.034 2.084-.172.735-.49 1.353-.956 1.852-.466.5-1.026.843-1.68 1.03a3.834 3.834 0 0 1-1.059.147c-.326 0-.66-.04-1-.12Z" id="i"/><path d="M4.671.22c-1.138.294-2.103.84-2.895 1.64C.984 2.659.451 3.641.178 4.805-.095 5.971-.054 7.087.3 8.154c.355 1.069.976 1.987 1.866 2.756.888.769 1.964 1.301 3.226 1.598 1.263.296 2.46.296 3.593 0a6.246 6.246 0 0 0 2.895-1.639c.798-.798 1.333-1.779 1.607-2.944.272-1.165.23-2.282-.132-3.351a6.249 6.249 0 0 0-1.864-2.755c-.883-.768-1.956-1.3-3.219-1.596A8.145 8.145 0 0 0 6.418 0c-.598 0-1.18.074-1.747.22Zm1.27 9.946c-.718-.169-1.328-.482-1.832-.94a3.61 3.61 0 0 1-1.048-1.669c-.194-.654-.206-1.349-.033-2.084.172-.735.49-1.353.956-1.852a3.607 3.607 0 0 1 1.68-1.029c.654-.187 1.341-.196 2.06-.028.717.169 1.328.482 1.832.94a3.592 3.592 0 0 1 1.047 1.669c.195.654.206 1.349.034 2.084-.172.735-.49 1.353-.956 1.852-.466.5-1.026.843-1.68 1.03a3.838 3.838 0 0 1-1.059.146c-.326 0-.66-.039-1-.119Z" id="k"/><path id="m" d="m0 12.284 2.806.658 1.748-7.459 4.373 8.894 2.334.547L14.14 2.64l-2.806-.658L9.585 9.44 5.23.551 2.879 0z"/><path id="o" d="m0 12.284 2.806.658 1.748-7.459 4.373 8.894 2.334.547L14.14 2.64l-2.806-.658L9.585 9.44 5.23.551 2.879 0z"/><path d="m0 2.247.726 2.186 4.091-1.358 1.859 5.601c.432 1.3.099 2.133-.999 2.497-.809.269-1.673.077-2.592-.577l-.893 2.313c.604.41 1.284.654 2.043.732a5.51 5.51 0 0 0 2.318-.275c1.375-.457 2.297-1.164 2.767-2.123.47-.958.464-2.162-.016-3.608L6.769 0 0 2.247Z" id="q"/><path d="m0 2.247.726 2.186 4.091-1.358 1.859 5.601c.432 1.3.099 2.133-.999 2.497-.809.269-1.673.077-2.592-.577l-.893 2.313c.604.41 1.284.654 2.043.732a5.51 5.51 0 0 0 2.318-.275c1.375-.457 2.297-1.164 2.767-2.123.47-.958.464-2.162-.016-3.608L6.769 0 0 2.247Z" id="s"/><path d="M6.373.031A9.982 9.982 0 0 0 4.04.512c-1.098.364-1.974.832-2.628 1.405C.758 2.488.333 3.11.137 3.78a3.314 3.314 0 0 0 .041 2.016c.256.772.67 1.321 1.241 1.645a3.843 3.843 0 0 0 1.835.511c.652.016 1.47-.024 2.455-.117.638-.065 1.15-.1 1.535-.106.386-.006.72.046 1.003.154a.894.894 0 0 1 .563.576c.124.374.035.738-.268 1.089-.3.351-.847.658-1.636.919a7.51 7.51 0 0 1-2.235.375c-.783.015-1.49-.074-2.126-.268l-.274 2.332c.67.218 1.488.305 2.456.259a10.7 10.7 0 0 0 2.876-.542c1.098-.365 1.976-.833 2.636-1.408.66-.573 1.09-1.197 1.291-1.87a3.234 3.234 0 0 0-.026-2.001c-.256-.773-.668-1.315-1.236-1.629a3.92 3.92 0 0 0-1.829-.494c-.653-.016-1.47.023-2.455.117-.943.105-1.66.132-2.152.081-.493-.051-.806-.274-.937-.671-.132-.397-.052-.779.238-1.145.292-.365.826-.678 1.603-.936 1.11-.368 2.32-.433 3.628-.194L8.546.154A6.57 6.57 0 0 0 7.09 0c-.232 0-.47.01-.716.031Z" id="u"/><path d="M6.373.031A9.982 9.982 0 0 0 4.04.512c-1.098.364-1.974.832-2.628 1.405C.758 2.488.333 3.11.137 3.78a3.314 3.314 0 0 0 .041 2.016c.256.772.67 1.321 1.241 1.645a3.843 3.843 0 0 0 1.835.511c.652.016 1.47-.024 2.455-.117.638-.065 1.15-.1 1.535-.106.386-.006.72.046 1.003.154a.894.894 0 0 1 .563.576c.124.374.035.738-.268 1.089-.3.351-.847.658-1.636.919a7.51 7.51 0 0 1-2.235.375c-.783.015-1.49-.074-2.126-.268l-.274 2.332c.67.218 1.488.305 2.456.259a10.7 10.7 0 0 0 2.876-.542c1.098-.365 1.976-.833 2.636-1.408.66-.573 1.09-1.197 1.291-1.87a3.234 3.234 0 0 0-.026-2.001c-.256-.773-.668-1.315-1.236-1.629a3.92 3.92 0 0 0-1.829-.494c-.653-.016-1.47.023-2.455.117-.943.105-1.66.132-2.152.081-.493-.051-.806-.274-.937-.671-.132-.397-.052-.779.238-1.145.292-.365.826-.678 1.603-.936 1.11-.368 2.32-.433 3.628-.194L8.546.154A6.575 6.575 0 0 0 7.09 0c-.233 0-.472.01-.717.031Z" id="w"/><path d="M4.834.417c-1.23.408-2.253 1.035-3.069 1.881C.95 3.144.413 4.116.156 5.211-.1 6.306-.04 7.421.336 8.557c.377 1.136.996 2.065 1.857 2.79.86.725 1.871 1.182 3.031 1.372 1.16.19 2.355.081 3.586-.327 1.231-.409 2.251-1.035 3.062-1.88a6.25 6.25 0 0 0 1.61-2.912c.261-1.097.204-2.214-.173-3.349-.377-1.136-.999-2.065-1.866-2.787A6.232 6.232 0 0 0 8.413.092 6.738 6.738 0 0 0 7.293 0c-.802 0-1.622.139-2.46.417ZM6 10.267a3.613 3.613 0 0 1-1.766-.873c-.508-.456-.882-1.042-1.119-1.759-.239-.717-.29-1.41-.155-2.079a3.61 3.61 0 0 1 .893-1.755c.46-.503 1.041-.87 1.74-1.102.7-.232 1.385-.285 2.054-.159a3.615 3.615 0 0 1 1.766.874c.508.456.881 1.042 1.12 1.759.237.716.288 1.409.153 2.079a3.605 3.605 0 0 1-.893 1.756c-.459.501-1.04.868-1.74 1.101a4.23 4.23 0 0 1-1.338.225c-.24 0-.479-.022-.715-.067Z" id="y"/><path d="M4.834.417c-1.23.408-2.253 1.035-3.069 1.881C.95 3.144.413 4.116.156 5.211-.1 6.306-.04 7.421.336 8.557c.377 1.136.996 2.065 1.857 2.79.86.725 1.871 1.182 3.031 1.372 1.16.19 2.355.081 3.586-.327 1.231-.409 2.251-1.035 3.062-1.88a6.25 6.25 0 0 0 1.61-2.912c.261-1.097.204-2.214-.173-3.349-.377-1.136-.999-2.065-1.866-2.787A6.232 6.232 0 0 0 8.413.092 6.74 6.74 0 0 0 7.292 0c-.8 0-1.62.138-2.459.417ZM6 10.267a3.613 3.613 0 0 1-1.766-.873c-.508-.456-.882-1.042-1.119-1.759-.239-.717-.29-1.41-.155-2.079a3.61 3.61 0 0 1 .893-1.755c.46-.503 1.041-.87 1.74-1.102.7-.232 1.385-.285 2.054-.159a3.615 3.615 0 0 1 1.766.874c.508.456.881 1.042 1.12 1.759.237.716.288 1.409.153 2.079a3.605 3.605 0 0 1-.893 1.756c-.459.501-1.04.868-1.74 1.101-.452.15-.898.226-1.338.226-.24 0-.478-.023-.715-.068Z" id="A"/></defs><g fill="none" fill-rule="evenodd"><g fill="#FEFEFE"><path d="m72.979 109.643-.042-.811-37.176 12.682L2.27 23.343 49.495 7.232l9.75 28.581c.179.522.746.8 1.27.621l8.483-2.894-.108-2.071-8.072 2.754-8.971-26.294 16.23 7.991-.12-2.286L50.564 5.07l-.002-.001-.004-.002a.998.998 0 0 0-.33-.088c-.034-.004-.066-.002-.1-.002-.09 0-.18.011-.267.035-.021.006-.042.002-.063.009L.678 21.778a.998.998 0 0 0-.624 1.267l34.135 100.059a.999.999 0 0 0 1.269.621l38.53-13.144a.995.995 0 0 1-1.01-.938M175.259 41.716l5.884-27.153 21.219 33.027-27.103-5.874Zm30.214 7.14a.951.951 0 0 0-.128-.32L181.52 11.453l-.002-.001-.003-.004a.974.974 0 0 0-.237-.246c-.026-.02-.055-.035-.084-.052a.923.923 0 0 0-.247-.108c-.021-.006-.037-.021-.058-.026L130.167.023a1 1 0 0 0-1.189.763l-1.272 5.868 1.713 1.545 1.303-6.014 48.766 10.568-6.396 29.514a1 1 0 0 0 .767 1.187l29.455 6.383-15.362 70.885-59.824-12.965-7.587.397 67.967 14.729a.999.999 0 0 0 1.189-.763l15.784-72.834c.004-.021-.002-.041.001-.062a.94.94 0 0 0 .003-.27c-.004-.033-.005-.065-.012-.097Z"/><path d="m155.851 104.31-80.927 4.233L69.506 4.958l49.83-2.607 1.577 30.158a.999.999 0 0 0 1.051.944l30.098-1.574 3.79 72.43Zm-5.298-74.35-27.694 1.449-1.45-27.745 29.144 26.296Zm3.44.758a.99.99 0 0 0-.067-.262c-.013-.03-.022-.061-.038-.09a.966.966 0 0 0-.207-.275L120.954.563V.562l-.005-.003a.987.987 0 0 0-.293-.175c-.03-.013-.063-.02-.095-.03a1.008 1.008 0 0 0-.267-.038c-.022 0-.04-.01-.063-.01L68.403 3.018a.999.999 0 0 0-.947 1.048l5.522 105.577a.998.998 0 0 0 1.051.944l82.925-4.337a.998.998 0 0 0 .947-1.05l-3.892-74.422c-.002-.021-.013-.04-.016-.06Z"/></g><g transform="translate(88.35 67.932)"><mask id="b" fill="#fff"><use xlink:href="#a"/></mask><path fill="#F1EEED" mask="url(#b)" d="m-1.67-.556 10.5-.549.77 14.7-10.5.55z"/></g><g transform="translate(98.73 67.516)"><mask id="d" fill="#fff"><use xlink:href="#c"/></mask><path fill="#F1EEED" mask="url(#d)" d="m-1.55-.689 12.6-.659.768 14.7-12.6.66z"/></g><g transform="translate(110.103 66.851)"><mask id="f" fill="#fff"><use xlink:href="#e"/></mask><path fill="#F1EEED" mask="url(#f)" d="m-1.425-.625 15.75-.824.77 14.7-15.75.824z"/></g><g transform="translate(125.534 65.792)"><mask id="h" fill="#fff"><use xlink:href="#g"/></mask><path fill="#F1EEED" mask="url(#h)" d="m-1.105-.39 13.65-.714.769 14.7-13.65.714z"/></g><path d="M160.507 89.364c-1.262-.296-2.338-.83-3.227-1.598-.89-.77-1.51-1.687-1.865-2.755-.355-1.068-.395-2.184-.122-3.35.273-1.164.806-2.146 1.598-2.945.792-.8 1.757-1.345 2.895-1.64 1.138-.293 2.338-.292 3.6.004 1.263.296 2.336.827 3.219 1.595a6.246 6.246 0 0 1 1.865 2.756c.36 1.068.404 2.186.13 3.35-.272 1.166-.808 2.147-1.606 2.944-.797.798-1.763 1.344-2.895 1.64-1.132.295-2.33.295-3.592-.001m.549-2.341c.718.168 1.404.159 2.059-.028a3.61 3.61 0 0 0 1.68-1.03c.465-.5.784-1.116.957-1.851.172-.736.16-1.43-.034-2.085a3.604 3.604 0 0 0-1.048-1.668 4.033 4.033 0 0 0-1.832-.94c-.718-.168-1.405-.16-2.06.028a3.594 3.594 0 0 0-1.68 1.029c-.465.499-.784 1.117-.956 1.852-.172.735-.161 1.43.034 2.084a3.613 3.613 0 0 0 1.047 1.669c.504.458 1.115.77 1.833.94" fill="#FEFEFE"/><g transform="translate(155.114 76.857)"><mask id="j" fill="#fff"><use xlink:href="#i"/></mask><path fill="#FEFEFE" mask="url(#j)" d="M-320.398 248.243 170.98 363.431 314.965-250.79l-491.378-115.188z"/></g><g transform="translate(155.114 76.856)"><mask id="l" fill="#fff"><use xlink:href="#k"/></mask><path fill="#FEFEFE" mask="url(#l)" d="M.834-2.6 16.19 1l-3.36 14.33-15.356-3.598z"/></g><path fill="#FEFEFE" d="m183.349 81.759-2.88 12.284-2.333-.546-4.373-8.894-1.748 7.459-2.806-.658 2.879-12.285 2.35.55 4.356 8.89 1.749-7.458z"/><g transform="translate(169.208 79.12)"><mask id="n" fill="#fff"><use xlink:href="#m"/></mask><path fill="#FEFEFE" mask="url(#n)" d="M-334.492 245.981 156.886 361.17 300.87-253.053-190.507-368.24z"/></g><g transform="translate(169.208 79.12)"><mask id="p" fill="#fff"><use xlink:href="#o"/></mask><path fill="#FEFEFE" mask="url(#p)" d="m2.096-1.264 13.308 3.12-3.36 14.332-13.308-3.12z"/></g><path d="M44.433 90.633a5.51 5.51 0 0 1-2.318.275 4.375 4.375 0 0 1-2.044-.732l.894-2.313c.92.654 1.783.846 2.592.577 1.098-.364 1.431-1.197 1-2.497l-1.86-5.6-4.09 1.357-.727-2.186 6.77-2.247 2.534 7.636c.48 1.446.485 2.648.016 3.607-.47.96-1.392 1.667-2.767 2.123" fill="#FEFEFE"/><g transform="translate(37.88 77.267)"><mask id="r" fill="#fff"><use xlink:href="#q"/></mask><path fill="#FEFEFE" mask="url(#r)" d="M-125.039 377.222 353.96 218.22 155.206-380.527-323.79-221.525z"/></g><g transform="translate(37.88 77.267)"><mask id="t" fill="#fff"><use xlink:href="#s"/></mask><path fill="#FEFEFE" mask="url(#t)" d="M-2.543 1.983 7.436-1.33l4.638 13.971-9.98 3.313z"/></g><path d="M55.507 86.957a10.7 10.7 0 0 1-2.875.541c-.969.046-1.787-.04-2.456-.259l.273-2.33c.635.193 1.344.282 2.125.267a7.517 7.517 0 0 0 2.236-.375c.79-.262 1.335-.568 1.637-.92.302-.35.391-.714.266-1.089a.896.896 0 0 0-.562-.575 2.71 2.71 0 0 0-1.003-.154c-.385.006-.897.041-1.535.106-.984.094-1.802.133-2.455.117a3.846 3.846 0 0 1-1.835-.51c-.57-.326-.985-.874-1.24-1.646a3.31 3.31 0 0 1-.042-2.015c.196-.67.621-1.293 1.275-1.865.654-.572 1.53-1.04 2.627-1.405a10.05 10.05 0 0 1 2.334-.48c.791-.067 1.515-.026 2.173.123l-.182 2.32c-1.31-.24-2.519-.175-3.628.193-.777.258-1.31.57-1.602.936-.29.366-.37.748-.239 1.145.132.396.444.62.937.671.492.051 1.21.024 2.152-.08.984-.095 1.803-.134 2.455-.118a3.935 3.935 0 0 1 1.83.494c.567.314.98.857 1.235 1.628.22.662.23 1.33.027 2.002-.202.673-.633 1.297-1.292 1.871-.66.574-1.539 1.043-2.636 1.407" fill="#FEFEFE"/><g transform="translate(47.904 74.334)"><mask id="v" fill="#fff"><use xlink:href="#u"/></mask><path fill="#FEFEFE" mask="url(#v)" d="m-135.062 380.155 478.998-159.002-198.753-598.747-478.997 159.002z"/></g><g transform="translate(47.904 74.334)"><mask id="x" fill="#fff"><use xlink:href="#w"/></mask><path fill="#FEFEFE" mask="url(#x)" d="M-2.588 1.604 9.387-2.371l4.637 13.97L2.05 15.576z"/></g><path d="M68.035 82.799c-1.23.409-2.426.518-3.586.327-1.16-.19-2.17-.647-3.03-1.371-.862-.725-1.48-1.655-1.858-2.79-.377-1.136-.437-2.252-.18-3.347.257-1.095.793-2.066 1.61-2.912.815-.846 1.838-1.473 3.07-1.882 1.23-.408 2.422-.517 3.576-.324a6.247 6.247 0 0 1 3.032 1.37c.866.724 1.488 1.653 1.865 2.788.377 1.136.434 2.253.172 3.35a6.248 6.248 0 0 1-1.61 2.912c-.81.844-1.83 1.47-3.06 1.879m-.759-2.283c.7-.232 1.28-.6 1.741-1.101.46-.501.758-1.087.893-1.756.135-.67.083-1.362-.155-2.08-.238-.715-.61-1.302-1.119-1.757a3.606 3.606 0 0 0-1.766-.874c-.669-.127-1.353-.074-2.053.159-.7.232-1.28.599-1.74 1.1a3.605 3.605 0 0 0-.894 1.757c-.135.669-.083 1.362.155 2.079.237.716.611 1.303 1.12 1.758a3.606 3.606 0 0 0 1.765.874c.67.127 1.353.074 2.053-.16" fill="#FEFEFE"/><g transform="translate(59.225 70.407)"><mask id="z" fill="#fff"><use xlink:href="#y"/></mask><path fill="#FEFEFE" mask="url(#z)" d="m-145.434 383.767 478.998-159.002L134.81-373.982-344.186-214.98z"/></g><g transform="translate(59.225 70.407)"><mask id="B" fill="#fff"><use xlink:href="#A"/></mask><path fill="#FEFEFE" mask="url(#B)" d="m-2.98 1.903 14.968-4.969 4.637 13.971-14.968 4.969z"/></g></g></svg>