<svg width="41" height="51" xmlns="http://www.w3.org/2000/svg"><g fill="none" fill-rule="evenodd"><g stroke="#FFF"><path d="m24.997.5 14.528 14.582V50.5H.5V.5h24.497Z"/><path d="M25.516 1.21 38.82 14.55H25.516V1.21Z"/></g><g fill="#F2EFEE" fill-rule="nonzero"><path d="M9.879 33.539c-.408 0-.783-.076-1.125-.228a2.15 2.15 0 0 1-.84-.651l.775-.931c.328.442.702.663 1.121.663.569 0 .853-.333.853-1v-2.87h-2.12v-1.12h3.508v3.913c0 .741-.184 1.297-.551 1.668-.368.37-.908.556-1.621.556ZM15.413 33.539c-.477 0-.938-.065-1.383-.194-.446-.13-.803-.297-1.073-.504l.474-1.052c.258.19.566.342.922.457.356.115.713.172 1.069.172.397 0 .69-.059.88-.176.189-.118.284-.275.284-.47a.45.45 0 0 0-.168-.358 1.274 1.274 0 0 0-.431-.228 8.58 8.58 0 0 0-.712-.19 9.831 9.831 0 0 1-1.129-.328 1.835 1.835 0 0 1-.754-.525c-.21-.242-.315-.564-.315-.966 0-.35.095-.668.285-.953.19-.284.475-.51.857-.676.383-.167.85-.25 1.401-.25.385 0 .762.046 1.13.138.367.092.69.224.965.396l-.431 1.06c-.557-.316-1.115-.474-1.672-.474-.391 0-.68.064-.867.19a.579.579 0 0 0-.28.5c0 .207.108.36.323.461.216.1.545.2.987.298.46.109.837.218 1.13.327.293.11.544.282.754.517.21.236.315.555.315.957 0 .345-.097.66-.29.944-.192.285-.48.51-.865.677-.386.167-.854.25-1.406.25ZM21.853 33.539a3.522 3.522 0 0 1-1.694-.405 3.007 3.007 0 0 1-1.181-1.116 3.048 3.048 0 0 1-.427-1.6c0-.592.142-1.125.427-1.599a3.007 3.007 0 0 1 1.18-1.116 3.522 3.522 0 0 1 1.695-.405c.626 0 1.19.135 1.69.405s.893.642 1.18 1.116c.288.474.432 1.007.432 1.6 0 .591-.144 1.124-.432 1.599a3.046 3.046 0 0 1-1.18 1.116c-.5.27-1.064.405-1.69.405Zm0-1.19c.356 0 .678-.082.965-.245.288-.164.513-.393.677-.686.164-.293.246-.626.246-1 0-.373-.082-.706-.246-1a1.763 1.763 0 0 0-.677-.685 1.915 1.915 0 0 0-.965-.246c-.356 0-.678.082-.966.246a1.763 1.763 0 0 0-.676.685 2.015 2.015 0 0 0-.246 1c0 .374.082.707.246 1 .163.293.389.522.676.686.288.163.61.245.966.245ZM31.74 27.401v6.035h-1.146l-3.009-3.664v3.664h-1.379V27.4h1.155l3 3.664V27.4z"/></g></g></svg>