<svg width="20" height="20" xmlns="http://www.w3.org/2000/svg"><path d="M10 0C4.477 0 0 4.477 0 10s4.477 10 10 10 10-4.477 10-10S15.523 0 10 0zm4.219 15.876a.25.25 0 0 1-.222.374h-1.836a.254.254 0 0 1-.222-.13l-3.328-6.06-.15-.277.061.277.693 3.172v2.765c0 .14-.114.253-.254.253H7.34a.254.254 0 0 1-.253-.253V10.06H5.56a.31.31 0 0 1 0-.62h1.527V4.003c0-.14.113-.253.253-.253h1.619c.14 0 .253.113.254.253v4.409L11.7 3.878a.254.254 0 0 1 .224-.129h1.836a.25.25 0 0 1 .223.371l-2.924 5.32h2.881a.31.31 0 1 1 0 .62h-2.915l3.194 5.816z" fill="#8AAFE5"/></svg>