<svg width="13" height="24" xmlns="http://www.w3.org/2000/svg"><defs><linearGradient x1="0%" y1="49.998%" x2="100%" y2="49.998%" id="a"><stop stop-color="#F96943" offset="24%"/><stop stop-color="#CE4E2C" offset="78%"/></linearGradient></defs><g fill-rule="nonzero" fill="none"><path d="m7.021 2.86-3.8 2.8L0 3.287V.453C0 .203.233 0 .52 0h2.624l3.877 2.86zM13 7.266l-2.178-1.604-3.8 2.802 3.4 2.506L13 12.87V7.267zm-9.902 4.092L1.25 12.722a3.505 3.505 0 0 0-1.186 2.007l3.156 2.328 3.8-2.801-3.922-2.897zm7.724 5.698-3.8 2.8L9.927 22h2.552a.553.553 0 0 0 .366-.132.42.42 0 0 0 .152-.32V18.66l-2.175-1.603z" fill="url(#a)"/><path d="m11.668 9.787-.006.005L0 18.395V24l13-9.59V7c0 1.099-.493 2.133-1.332 2.787zM13 .373v2.992L1.255 12.22C.462 12.89 0 13.915 0 15V7.437L9.862 0h2.644c.247.008.45.165.494.373z" fill="#8C175B"/></g></svg>