<svg width="20" height="20" xmlns="http://www.w3.org/2000/svg"><path d="M14.779 10.08h-3.227l3.178 5.795a.253.253 0 0 1-.222.374h-1.834a.252.252 0 0 1-.221-.13l-3.31-6.038h-.536v5.915c0 .14-.113.253-.253.253H6.737a.253.253 0 0 1-.253-.253V10.08H5.121a.297.297 0 0 1 0-.594h1.363V4.002c0-.14.113-.253.253-.253h1.617c.14 0 .253.113.253.253v5.485h.532l3.077-5.609c.045-.08.13-.13.221-.13h1.835a.252.252 0 0 1 .221.372l-2.945 5.367h3.23a.297.297 0 0 1 0 .594M10 0C4.477 0 0 4.477 0 10s4.477 10 10 10 10-4.477 10-10S15.523 0 10 0" fill="#EF5A28" fill-rule="evenodd"/></svg>
