<svg xmlns="http://www.w3.org/2000/svg" viewBox="0 0 425.2 425.2"><path fill="#8c175b" class="b13f689e-943a-4d98-8874-d9891ba89f0d" d="M176.33 205.26s-33.92 35.63-24 46.47l74.39 82a3.89 3.89 0 0 0 2.89 1.28h55.65a3.92 3.92 0 0 0 2.9-6.54zm72.54 14.64s33.92-35.62 24-46.46l-74.39-82a3.91 3.91 0 0 0-2.9-1.28H140a3.91 3.91 0 0 0-2.89 6.62z"/><path fill="#ea5b2a" class="bd520038-da0e-4769-84e7-0add46e11491" d="M248.87 219.9s33.92-35.62 24-46.46c24.33 26.68 35.46 39.07 39.84 43.87a3.89 3.89 0 0 1 0 5.2L183.83 369.78a3.88 3.88 0 0 1-2.94 1.33h-55.81a3.9 3.9 0 0 1-2.94-6.48zm-72.54-14.64s-33.92 35.63-24 46.47c-24.34-26.68-35.47-39.07-39.84-43.87a3.89 3.89 0 0 1 0-5.2l129-147.24a3.9 3.9 0 0 1 2.94-1.34h55.81a3.91 3.91 0 0 1 2.94 6.49z"/></svg>