<svg width="18" height="20" xmlns="http://www.w3.org/2000/svg" xmlns:xlink="http://www.w3.org/1999/xlink"><defs><path id="a" d="M0 0h11.68v13.854H0z"/></defs><g fill="none" fill-rule="evenodd"><path d="M4.794 20c-1.884-.087-3.365-1.13-4.24-2.977-.89-1.882-.717-3.773.592-5.389C2.398 10.088 3.79 8.65 5.253 7.307c1.807-1.659 4.693-1.504 6.328.214.2.21.193.322-.003.52a69.172 69.172 0 0 0-1.665 1.747c-.14.152-.223.158-.385.013-.843-.751-1.815-.718-2.594.091a311.548 311.548 0 0 0-3.38 3.557 1.964 1.964 0 0 0-.222 2.433c.547.84 1.399 1.179 2.232.894a1.91 1.91 0 0 0 .769-.517c.45-.475.899-.952 1.354-1.421.65-.67 1.512-.717 2.128-.121.613.593.65 1.574.054 2.23a37.31 37.31 0 0 1-1.701 1.767c-.892.86-1.974 1.263-3.374 1.286" fill="#FFF"/><g transform="translate(6.32)"><mask id="b" fill="#fff"><use xlink:href="#a"/></mask><path d="M11.68 5.295c-.028 1.248-.451 2.44-1.37 3.42-1.195 1.273-2.38 2.555-3.614 3.788-1.81 1.809-4.69 1.79-6.514.012-.218-.212-.26-.34-.017-.577.555-.542 1.082-1.114 1.61-1.685.155-.17.243-.216.444-.03.784.723 1.789.691 2.535-.08a260.328 260.328 0 0 0 3.41-3.585c.802-.86.72-2.05-.167-2.899-.797-.762-1.842-.71-2.658.14-.435.451-.858.915-1.3 1.359-.575.578-1.387.625-1.98.131-.605-.504-.796-1.461-.297-2.077.72-.888 1.456-1.79 2.42-2.418C7.248-1.208 10.74.848 11.52 3.93c.105.414.159.837.159 1.366" fill="#FFF" mask="url(#b)"/></g></g></svg>