<svg width="57" height="64" xmlns="http://www.w3.org/2000/svg"><g fill="#F2EFEE"><path d="M37.419 24.346v-1.338c0-4.792-3.567-8.805-8.192-9.25-2.564-.112-5.127.612-6.91 2.396a8.782 8.782 0 0 0-2.843 6.408v1.784c-3.4.78-5.963 3.733-5.963 7.356V42.29c0 4.012 3.288 7.133 7.134 7.133h15.492c4.012 0 7.133-3.288 7.133-7.133V31.702c.112-3.623-2.452-6.576-5.851-7.356zm-12.985-5.963c1.17-1.17 2.842-1.616 4.626-1.505 3.009.279 5.35 3.01 5.35 6.242v1.058H22.483v-1.616c0-1.616.724-3.12 1.95-4.18zM40.372 42.4c0 2.397-1.95 4.18-4.18 4.18H20.7c-2.229 0-4.18-1.95-4.18-4.18V31.813c0-2.508 2.063-4.625 4.626-4.625h14.6c2.509 0 4.626 1.95 4.626 4.458v10.755z"/><path d="M28.447 33.15c-.892 0-1.505.614-1.505 1.505v6.019c0 .892.613 1.505 1.505 1.505.891 0 1.504-.613 1.504-1.505v-6.019c0-.891-.613-1.504-1.504-1.504z"/></g></svg>
