<svg width="39" height="36" xmlns="http://www.w3.org/2000/svg"><g fill="none" fill-rule="evenodd"><path d="M32.536 12.498c3.436 3.645 5.504 8.05 5.948 12.665 0 6.873-8.62 10.656-19.242 10.656C8.62 35.819 0 32.036 0 25.163c.444-4.615 2.512-9.02 5.947-12.665" fill="#50415A"/><path d="M30.222 12.498c2.896 3.292 4.585 7.057 4.908 10.943 0 5.939-7.114 9.207-15.888 9.207-8.774 0-15.888-3.268-15.888-9.207.323-3.886 2.011-7.65 4.908-10.943" fill="#EA5B2A"/><path d="M19.242 29.975c-.975 0-1.765-.79-1.765-1.766V14.916a1.764 1.764 0 1 1 3.53 0V28.21c0 .975-.79 1.766-1.765 1.766m8.827-5.296a1.766 1.766 0 0 1-1.766-1.766v-9.216a1.766 1.766 0 0 1 3.531 0v9.216c0 .975-.79 1.765-1.765 1.765m-17.654.001a1.766 1.766 0 0 1-1.765-1.766v-9.216a1.766 1.766 0 0 1 3.53 0v9.216c0 .975-.79 1.765-1.765 1.765" fill="#50415A"/><path d="m30.54 13.35-10.687 1.526c-.4.057-.807.057-1.207 0L7.944 13.35a4.275 4.275 0 0 1-3.67-4.237V4.275A4.273 4.273 0 0 1 8.548 0h21.381a4.271 4.271 0 0 1 4.274 4.275v4.843a4.276 4.276 0 0 1-3.663 4.231" fill="#50415A"/><path d="m28.568 13.35-8.827 1.526a2.98 2.98 0 0 1-.999 0L9.916 13.35a4.097 4.097 0 0 1-3.032-4.231V4.275A3.955 3.955 0 0 1 10.415 0H28.07a3.955 3.955 0 0 1 3.53 4.275v4.843a4.097 4.097 0 0 1-3.031 4.231" fill="#8C175B"/><path d="M21.007 8.791a1.765 1.765 0 1 1-3.53 0 1.765 1.765 0 0 1 3.53 0" fill="#EA5B2A"/></g></svg>