<svg width="48" height="48" xmlns="http://www.w3.org/2000/svg" xmlns:xlink="http://www.w3.org/1999/xlink"><defs><path id="a" d="M0 0h48v33.982H0z"/></defs><g fill="none" fill-rule="evenodd"><path d="M24 15.431c1.04 0 1.882.829 1.914 1.862a45.786 45.786 0 0 0 19.036-5C40.842 4.959 33.002 0 24 0 14.998 0 7.158 4.959 3.05 12.293a45.781 45.781 0 0 0 19.036 5A1.917 1.917 0 0 1 24 15.43" fill="#FFF"/><g transform="translate(0 14.018)"><mask id="b" fill="#fff"><use xlink:href="#a"/></mask><path d="M45.824 0A47.562 47.562 0 0 1 33.6 4.269v12.228a1.921 1.921 0 0 1-3.84 0V4.872c-1.267.152-2.545.27-3.84.322v13.223a1.919 1.919 0 1 1-3.84 0V5.194a48.259 48.259 0 0 1-3.84-.322v11.625a1.921 1.921 0 0 1-3.841 0V4.27A47.562 47.562 0 0 1 2.175 0 23.894 23.894 0 0 0 0 9.982c0 13.255 10.745 24 24 24 13.254 0 24-10.745 24-24C48 6.418 47.218 3.04 45.824 0" fill="#FFF" mask="url(#b)"/></g></g></svg>