<svg width="24" height="24" xmlns="http://www.w3.org/2000/svg"><path d="M16 12a4 4 0 1 1-8 0 4 4 0 0 1 8 0m-4.5-8.071v2.096c.165-.014.33-.025.5-.025.169 0 .335.011.5.025V3.929A1.995 1.995 0 0 0 12 0a1.995 1.995 0 0 0-.5 3.929M5.94 6.646l1.48 1.482c.107-.126.217-.252.336-.37.12-.12.245-.23.371-.337L6.646 5.94a1.996 1.996 0 0 0-3.132-2.425A1.995 1.995 0 0 0 5.94 6.646M3.929 12.5h2.096A5.893 5.893 0 0 1 6 12c0-.17.011-.335.025-.5H3.929A1.995 1.995 0 0 0 0 12a1.995 1.995 0 0 0 3.929.5m2.717 5.56 1.482-1.482a6.146 6.146 0 0 1-.37-.336 5.828 5.828 0 0 1-.337-.37l-1.481 1.48a1.996 1.996 0 0 0-2.425 3.132 1.995 1.995 0 0 0 3.132-2.425M12.5 20.07v-2.096A5.893 5.893 0 0 1 12 18c-.17 0-.335-.01-.5-.025v2.096A1.995 1.995 0 0 0 12 24a1.995 1.995 0 0 0 .5-3.929m5.56-2.718-1.482-1.482a6.146 6.146 0 0 1-.336.371c-.119.12-.245.229-.37.336l1.481 1.482a1.996 1.996 0 0 0 3.132 2.425 1.995 1.995 0 0 0-2.425-3.132m2.01-5.853h-2.096c.014.165.025.33.025.5 0 .169-.01.335-.025.5h2.096A1.995 1.995 0 0 0 24 12a1.995 1.995 0 0 0-3.929-.5m-2.718-5.56-1.482 1.48c.126.107.252.217.371.336.12.12.229.245.336.371l1.482-1.482a1.996 1.996 0 0 0 2.425-3.132 1.995 1.995 0 0 0-3.132 2.425" fill="#FFF" fill-rule="evenodd"/></svg>