<svg width="24" height="24" xmlns="http://www.w3.org/2000/svg"><path d="M12 0c6.628 0 12 5.372 12 12s-5.372 12-12 12S0 18.628 0 12 5.372 0 12 0Zm0 19.125a1.875 1.875 0 1 0 0 3.75 1.875 1.875 0 0 0 0-3.75Zm-3.897-2.25a1.875 1.875 0 1 0 0 3.75 1.875 1.875 0 0 0 0-3.75Zm7.794 0a1.875 1.875 0 1 0 0 3.75 1.875 1.875 0 0 0 0-3.75Zm-11.691-2.25a1.875 1.875 0 1 0 0 3.75 1.875 1.875 0 0 0 0-3.75Zm7.794 0a1.875 1.875 0 1 0 0 3.75 1.875 1.875 0 0 0 0-3.75Zm7.794 0a1.875 1.875 0 1 0 0 3.75 1.875 1.875 0 0 0 0-3.75Zm-11.691-2.25a1.875 1.875 0 1 0 0 3.75 1.875 1.875 0 0 0 0-3.75Zm7.794 0a1.875 1.875 0 1 0 0 3.75 1.875 1.875 0 0 0 0-3.75Zm-11.691-2.25a1.875 1.875 0 1 0 0 3.75 1.875 1.875 0 0 0 0-3.75Zm15.588 0a1.875 1.875 0 1 0 0 3.75 1.875 1.875 0 0 0 0-3.75Zm-7.794 0a1.875 1.875 0 1 0 0 3.75 1.875 1.875 0 0 0 0-3.75Zm-3.897-2.25a1.875 1.875 0 1 0 0 3.75 1.875 1.875 0 0 0 0-3.75Zm7.794 0a1.875 1.875 0 1 0 0 3.75 1.875 1.875 0 0 0 0-3.75ZM12 5.625a1.875 1.875 0 1 0 0 3.75 1.875 1.875 0 0 0 0-3.75Zm-7.794 0a1.875 1.875 0 1 0 0 3.75 1.875 1.875 0 0 0 0-3.75Zm15.588 0a1.875 1.875 0 1 0 0 3.75 1.875 1.875 0 0 0 0-3.75ZM8.103 3.375a1.875 1.875 0 1 0 0 3.75 1.875 1.875 0 0 0 0-3.75Zm7.794 0a1.875 1.875 0 1 0 0 3.75 1.875 1.875 0 0 0 0-3.75ZM12 1.125a1.875 1.875 0 1 0 0 3.75 1.875 1.875 0 0 0 0-3.75Z" fill="#FFF" fill-rule="evenodd"/></svg>