<svg width="18" height="18" xmlns="http://www.w3.org/2000/svg"><path d="M17.663 3.403c-.957-.984-1.941-2.025-2.897-2.981-.225-.225-.535-.366-.816-.366-.281 0-.534.057-.76.282L1.857 11.559c-.028.029-.056.057-.056.113L.112 16.903l-.028.085c-.084.224-.028.478.113.675.225.253.59.337.928.224L6.328 16.2a.213.213 0 0 0 .113-.056L17.663 4.922a.978.978 0 0 0 .309-.76c0-.309-.14-.618-.31-.759zM5.569 14.822l-3.656 1.21 1.18-3.657 8.073-7.903 2.39 2.39-7.987 7.96zm9.028-9.028-2.39-2.39 1.63-1.632c.816.815 1.632 1.631 2.391 2.475l-1.631 1.547z" fill="#F2EFEE" /></svg>
