<svg width="24" height="24" xmlns="http://www.w3.org/2000/svg"><g fill="#EF5A28" fill-rule="evenodd"><path d="M16.013 10.987h-3v-3c0-.6-.413-1.012-1.013-1.012-.6 0-1.012.412-1.012 1.012v3h-3c-.6 0-1.013.413-1.013 1.013 0 .6.413 1.012 1.013 1.012h3v3c0 .6.412 1.013 1.012 1.013.6 0 1.013-.488 1.013-1.013v-3h3c.6 0 1.012-.412 1.012-1.012-.037-.6-.412-1.013-1.012-1.013"/><path d="M12 22.013c-5.513 0-10.012-4.5-10.012-10.013 0-5.512 4.5-10.012 10.012-10.012 5.512 0 10.012 4.5 10.012 10.012 0 5.513-4.5 10.013-10.012 10.013M12 0C5.4 0 0 5.4 0 12s5.4 12 12 12 12-5.4 12-12S18.6 0 12 0"/></g></svg>
