<svg width="24" height="24" xmlns="http://www.w3.org/2000/svg"><g fill="none" fill-rule="evenodd"><g fill="#FFF"><path d="M16 12a4 4 0 1 1-8 0 4 4 0 0 1 8 0M11.5 3.929v1.096c.166-.012.33-.025.5-.025.169 0 .334.013.5.025V3.929A1.995 1.995 0 0 0 12 0a1.995 1.995 0 0 0-.5 3.929M5.94 6.646l.774.775c.11-.126.216-.252.336-.372.12-.119.246-.226.371-.335l-.775-.775a1.996 1.996 0 0 0-3.132-2.425A1.995 1.995 0 0 0 5.94 6.646M3.929 12.5h1.096C5.013 12.334 5 12.169 5 12c0-.17.013-.334.025-.5H3.929A1.995 1.995 0 0 0 0 12a1.995 1.995 0 0 0 3.929.5M6.646 18.06l.775-.775c-.126-.109-.252-.216-.372-.336-.119-.119-.226-.246-.335-.37l-.775.774a1.996 1.996 0 0 0-2.425 3.132 1.995 1.995 0 0 0 3.132-2.425M12.5 20.07v-1.096c-.166.012-.331.025-.5.025-.17 0-.334-.013-.5-.025v1.096A1.995 1.995 0 0 0 12 24a1.995 1.995 0 0 0 .5-3.929M18.06 17.353l-.775-.775c-.109.126-.216.252-.336.372-.119.119-.246.226-.37.335l.774.775a1.996 1.996 0 0 0 3.132 2.425 1.995 1.995 0 0 0-2.425-3.132M20.07 11.5h-1.096c.012.166.025.33.025.5 0 .169-.013.334-.025.5h1.096A1.995 1.995 0 0 0 24 12a1.995 1.995 0 0 0-3.929-.5M17.353 5.94l-.775.774c.126.11.252.216.372.336.119.12.226.246.335.371l.775-.775a1.996 1.996 0 0 0 2.425-3.132 1.995 1.995 0 0 0-3.132 2.425"/></g><path d="M19.5 0a4.5 4.5 0 1 1-.001 9.001A4.5 4.5 0 0 1 19.5 0" fill="#FF6500"/></g></svg>