<svg width="25" height="23" xmlns="http://www.w3.org/2000/svg"><defs><filter x="-10.4%" y="-11.4%" width="120.8%" height="122.7%" filterUnits="objectBoundingBox" id="a"><feOffset dx="-1" dy="1" in="SourceAlpha" result="shadowOffsetOuter1"/><feColorMatrix values="0 0 0 0 0 0 0 0 0 0 0 0 0 0 0 0 0 0 0.3 0" in="shadowOffsetOuter1" result="shadowMatrixOuter1"/><feMerge><feMergeNode in="shadowMatrixOuter1"/><feMergeNode in="SourceGraphic"/></feMerge></filter></defs><g filter="url(#a)" transform="translate(1)" fill="#F2EFEE" fill-rule="nonzero"><path d="m23.573 20.198-6.371-5.18C19.9 11.3 19.488 6.118 16.19 2.815A9.317 9.317 0 0 0 9.48 0c-2.51 0-4.871.976-6.67 2.778C1.01 4.58 0 6.983 0 9.498c0 2.516 1.012 4.918 2.81 6.72 1.912 1.915 4.31 2.816 6.709 2.816 2.286 0 4.61-.788 6.408-2.515l6.484 5.293c.187.188.412.188.6.188.3 0 .599-.113.786-.413.3-.375.3-.976-.224-1.389zM9.48 17.007a7.361 7.361 0 0 1-5.284-2.215c-1.386-1.39-2.21-3.304-2.21-5.294 0-1.99.786-3.904 2.21-5.293C5.621 2.815 7.495 1.99 9.481 1.99c1.987 0 3.898.788 5.285 2.215 1.386 1.426 2.21 3.304 2.21 5.293 0 1.99-.786 3.905-2.21 5.294-1.387 1.426-3.26 2.215-5.285 2.215z"/></g></svg>
