<svg width="24" height="25" xmlns="http://www.w3.org/2000/svg"><g fill="none" fill-rule="evenodd"><path d="M12.019 9.262a3.089 3.089 0 0 0-3.075 3.075 3.089 3.089 0 0 0 3.075 3.075 3.089 3.089 0 0 0 3.075-3.075 3.089 3.089 0 0 0-3.075-3.075m0 7.988a4.945 4.945 0 0 1-4.95-4.95 4.945 4.945 0 0 1 4.95-4.95 4.945 4.945 0 0 1 4.95 4.95c-.038 2.737-2.25 4.95-4.95 4.95" fill="#F2EFEE"/><path d="M6.281 17.362c.338 0 .675.113.975.338.188.15.338.262.488.412.412.338.675.6 1.087.788.675.3 1.125 1.012 1.125 1.762v1.688a.08.08 0 0 0 .075.075h4.013c.037 0 .075-.038.075-.075v-1.8c0-.75.412-1.425 1.087-1.725.375-.188.675-.413 1.05-.75.15-.15.3-.262.488-.413.487-.412 1.162-.45 1.725-.15l1.837 1.05 1.5-2.55-1.725-.937a1.64 1.64 0 0 1-.825-1.688 6.14 6.14 0 0 0 .113-1.162c0-.412-.038-.825-.075-1.162a1.614 1.614 0 0 1 .786-1.688l1.763-.975-1.538-2.55-1.837 1.05c-.563.3-1.238.262-1.725-.15-.188-.15-.375-.3-.525-.45-.375-.338-.675-.563-1.05-.75a1.942 1.942 0 0 1-1.088-1.725V2.287c0-.037-.037-.075-.075-.075H9.994c-.038 0-.075.038-.075.075v1.538c0 .75-.45 1.425-1.088 1.725-.375.187-.675.45-1.087.787-.15.113-.3.263-.488.375-.487.413-1.162.45-1.725.15L3.694 5.85l-1.5 2.55 1.762.975c.6.337.938 1.012.788 1.688-.075.337-.075.712-.075 1.124 0 .413.037.788.075 1.163.075.675-.225 1.312-.788 1.612l-1.8 1.013 1.538 2.55 1.836-1.05a2.42 2.42 0 0 1 .75-.113zm7.725 6.863H9.994a1.96 1.96 0 0 1-1.95-1.95v-1.688c0-.037 0-.037-.038-.037a6.3 6.3 0 0 1-1.5-1.05 2.053 2.053 0 0 0-.3-.225l-2.362 1.312c-.563.226-1.2 0-1.5-.487l-2.25-3.863c-.225-.562-.038-1.2.487-1.5l2.25-1.237c-.037-.413-.075-.825-.075-1.238 0-.487.038-.9.075-1.275l-2.175-1.2c-.3-.15-.487-.412-.562-.75A1.37 1.37 0 0 1 .206 8.1l2.175-3.713c.338-.525.975-.824 1.8-.375l2.063 1.163c.075-.075.187-.15.262-.225.45-.375.9-.75 1.5-1.05.038 0 .038-.038.038-.038V2.325c0-1.05.862-1.95 1.95-1.95h4.012c1.05 0 1.95.862 1.95 1.95v1.462c0 .038 0 .038.038.038.6.3 1.012.637 1.462 1.012.113.075.187.188.3.263l2.363-1.313c.562-.224 1.2 0 1.5.488l2.287 3.862c.225.563.038 1.2-.487 1.5l-2.213 1.238c.075.412.075.825.075 1.313 0 .412-.037.862-.112 1.274l2.175 1.2c.3.15.487.413.562.713.075.3.038.637-.112.9l-2.213 3.75c-.3.488-.975.788-1.8.337L17.719 19.2c-.113.075-.188.15-.3.262-.45.375-.863.75-1.463 1.013-.037 0-.037.037-.037.037v1.725c0 1.125-.863 1.988-1.913 1.988z" fill="#F2EFEE"/></g></svg>
