<svg width="12" height="12" xmlns="http://www.w3.org/2000/svg" xmlns:xlink="http://www.w3.org/1999/xlink"><defs><path id="a" d="M0 0h12v11.333H0z"/></defs><g fill="none" fill-rule="evenodd"><mask id="b" fill="#fff"><use xlink:href="#a"/></mask><path d="M10.058 4.733c0 1.508-.832 2.811-2.052 3.513A2.193 2.193 0 0 0 6 6.933c-.898 0-1.667.541-2.007 1.313-1.22-.702-2.052-2.005-2.052-3.513l.001-.016c.844.098 1.704-.3 2.156-1.084a2.204 2.204 0 0 0-.132-2.398A4.002 4.002 0 0 1 6 .667c.745 0 1.434.216 2.034.568a2.204 2.204 0 0 0-.132 2.398 2.193 2.193 0 0 0 2.155 1.084l.002.016m1.647-3.3a2.194 2.194 0 0 0-3-.805c-.062.036-.114.083-.17.124A4.678 4.678 0 0 0 5.998 0c-.934 0-1.8.281-2.534.752-.057-.041-.109-.088-.17-.124a2.195 2.195 0 0 0-3 .805 2.204 2.204 0 0 0 .803 3.006c.064.036.131.058.197.088-.003.07-.02.136-.02.206 0 1.821 1.042 3.386 2.551 4.178-.008.074-.022.146-.022.222 0 1.215.983 2.2 2.196 2.2a2.199 2.199 0 0 0 2.196-2.2c0-.076-.015-.148-.023-.223 1.51-.791 2.552-2.356 2.552-4.177 0-.07-.018-.136-.02-.206.065-.029.132-.052.196-.088a2.204 2.204 0 0 0 .804-3.006" fill="#FFF" mask="url(#b)"/></g></svg>
