<svg width="12" height="12" xmlns="http://www.w3.org/2000/svg" xmlns:xlink="http://www.w3.org/1999/xlink"><defs><path id="a" d="M0 0h12v12H0z"/></defs><g fill="none" fill-rule="evenodd"><mask id="b" fill="#fff"><use xlink:href="#a"/></mask><path d="M10 0a2 2 0 0 0-2 2c0 .6.271 1.134.691 1.5L6.418 8.046A1.983 1.983 0 0 0 6 8.002c-.144 0-.283.017-.418.046L3.309 3.5C3.729 3.134 4 2.6 4 2a2 2 0 1 0-1.582 1.954l2.273 4.547C4.271 8.867 4 9.4 4 10a2 2 0 1 0 4 0c0-.601-.271-1.134-.691-1.5l2.273-4.546A2 2 0 1 0 10 0" fill="#FFF" mask="url(#b)"/></g></svg>