<svg height="24" width="24" xmlns="http://www.w3.org/2000/svg"><g fill="none"><path d="m.413 10.015 11.394 2.098 4.032 11.552L4.282 21.54z"/><g fill="#fff"><path d="m.82 10.378 10.786 1.985 3.804 10.94-10.927-2.014zM0 9.641l4.075 12.136 12.014 2.212.108-.136-4.189-11.995z"/><path d="M12.215 11.609.51 9.459 7.868.306l11.742 2.16 4.08 11.7-7.384 9.182z"/><path d="m7.971.618 11.41 2.104 3.983 11.388-6.966 8.682-3.9-11.127-.082-.323-.31-.057L1.022 9.244zM7.759 0 0 9.64l12.008 2.207 4.19 12.006-.11.136h.044L24 14.223 19.81 2.217zM4.075 21.788 16.09 24z"/></g></g></svg>