<svg width="24" height="24" xmlns="http://www.w3.org/2000/svg"><g fill="#FFF" fill-rule="evenodd"><path d="M13.278 3.083A1.806 1.806 0 0 0 10.724.529L.53 10.724c-.7.707-.7 1.847 0 2.554l5.097 5.097c.708.7 1.847.7 2.554 0l8.918-8.928 2.554 2.554-8.928 8.918a1.806 1.806 0 0 0 2.554 2.554l10.195-10.195c.7-.707.7-1.847 0-2.554l-5.098-5.097c-.707-.7-1.846-.7-2.553 0l-8.919 8.928L4.35 12l8.928-8.918z" opacity=".2"/><path d="M3.082 10.724A1.806 1.806 0 1 1 .53 13.278a1.806 1.806 0 0 1 2.553-2.554M8.18 5.627a1.805 1.805 0 1 1-2.554 0c.708-.7 1.847-.7 2.554 0M13.278.529a1.805 1.805 0 1 1-2.554 0c.707-.7 1.847-.7 2.554 0M8.18 15.822a1.805 1.805 0 1 1-2.554 0c.708-.7 1.847-.7 2.554 0M13.278 10.724a1.805 1.805 0 1 1-2.554 0c.707-.7 1.847-.7 2.554 0M18.375 5.627a1.805 1.805 0 1 1-2.553 0c.707-.7 1.846-.7 2.553 0M13.278 20.92a1.805 1.805 0 1 1-2.554 0c.707-.701 1.847-.701 2.554 0M18.375 15.822a1.805 1.805 0 1 1-2.553 0c.707-.7 1.846-.7 2.553 0M23.473 10.724a1.805 1.805 0 1 1-2.554 0c.707-.7 1.847-.7 2.554 0"/></g></svg>