<svg viewBox="0 0 119 25" xmlns="http://www.w3.org/2000/svg"><g fill="#fff" fill-rule="evenodd"><path d="M13.83 3.21A1.88 1.88 0 0 0 11.17.55L.55 11.17a1.89 1.89 0 0 0 0 2.66l5.31 5.31a1.89 1.89 0 0 0 2.66 0l9.29-9.3 2.66 2.66-9.3 9.29a1.88 1.88 0 0 0 2.66 2.66l10.62-10.62a1.89 1.89 0 0 0 0-2.66l-5.31-5.31a1.89 1.89 0 0 0-2.66 0l-9.29 9.3-2.66-2.66z" opacity=".2"/><path d="M3.21 11.17a1.88 1.88 0 0 1-2.66 2.66 1.88 1.88 0 0 1 2.66-2.66M8.52 5.86a1.88 1.88 0 1 1-2.66 0 1.89 1.89 0 0 1 2.66 0M13.83.55a1.88 1.88 0 1 1-2.66 0 1.89 1.89 0 0 1 2.66 0M8.52 16.48a1.88 1.88 0 1 1-2.66 0 1.89 1.89 0 0 1 2.66 0M13.83 11.17a1.88 1.88 0 1 1-2.66 0 1.89 1.89 0 0 1 2.66 0M19.14 5.86a1.88 1.88 0 1 1-2.66 0 1.89 1.89 0 0 1 2.66 0M13.83 21.79a1.88 1.88 0 1 1-2.66 0 1.89 1.89 0 0 1 2.66 0M19.14 16.48a1.88 1.88 0 1 1-2.66 0 1.89 1.89 0 0 1 2.66 0M24.45 11.17a1.88 1.88 0 1 1-2.66 0 1.89 1.89 0 0 1 2.66 0M46.45 6.42v7.18a3.36 3.36 0 0 0 6.72.06V6.42h2v7a5.22 5.22 0 0 1-5.41 5.31 5.09 5.09 0 0 1-5.25-5.22V6.42zm41.62-.17A6.29 6.29 0 0 1 92.45 8l.06.06-1.34 1.3A4.09 4.09 0 0 0 88.07 8a4.35 4.35 0 0 0-4.32 4.48A4.35 4.35 0 0 0 88.07 17a4.16 4.16 0 0 0 3.05-1.32v-.05l1.31 1.3a6.24 6.24 0 0 1-4.41 1.84 6 6 0 0 1-6.32-6.25 6.32 6.32 0 0 1 6.37-6.27zm-48.63 5.38a3.33 3.33 0 0 1 3.47 3.48 3.44 3.44 0 0 1-3.41 3.47h-7.22v-1.74h7A1.64 1.64 0 0 0 41 15.11a1.64 1.64 0 0 0-1.68-1.74h-.87v-1.74zm25-5.21A3.39 3.39 0 0 1 68 9.89a3.53 3.53 0 0 1-1.17 2.58A3.49 3.49 0 0 1 68 15.11a3.36 3.36 0 0 1-3.41 3.47h-7.31v-1.74h7.09a1.65 1.65 0 0 0 1.74-1.73 1.65 1.65 0 0 0-1.69-1.74h-7.14v-1.74h7A1.65 1.65 0 0 0 66 9.89a1.64 1.64 0 0 0-1.69-1.73h-7.06V6.42zm12.37 5.21a3.33 3.33 0 0 1 3.47 3.48 3.44 3.44 0 0 1-3.41 3.47h-7.19v-1.74h7a1.64 1.64 0 0 0 1.73-1.73 1.64 1.64 0 0 0-1.68-1.74h-.77v-1.74zm23-5.21 5.22 12.16h-1.94l-.74-1.74h-5.27l.5-1.73h4.09L99 8.69l-4.12 9.89h-2l5.25-12.16zm8.23 0 8.75 9.26V6.42h2v12.16h-1.67l-8.75-9.26v9.26h-2V6.42zm-66.21 0v1.74h-6.07A1.65 1.65 0 0 0 34 9.89a1.65 1.65 0 0 0 1.69 1.74h.21v1.74h-.36a3.34 3.34 0 0 1-3.48-3.48 3.43 3.43 0 0 1 3.44-3.47h6.38zm37.4 0v1.74h-6.07a1.65 1.65 0 0 0-1.74 1.73 1.65 1.65 0 0 0 1.69 1.74h.31v1.74H73a3.34 3.34 0 0 1-3.48-3.48 3.43 3.43 0 0 1 3.38-3.47h6.38z"/></g></svg>