<svg width="10" height="12" xmlns="http://www.w3.org/2000/svg"><g fill="#FFF" fill-rule="nonzero"><path d="M9.22 1.559h-2C7.1.676 6.34 0 5.34 0h-.62c-1 0-1.78.676-1.88 1.559H.78c-.44 0-.78.319-.78.732l.5 7.831C.56 11.174 1.5 12 2.62 12h4.72c1.12 0 2.06-.789 2.16-1.878l.5-7.83c0-.414-.34-.733-.78-.733Zm-4.5-.526h.62c.34 0 .62.206.72.526H3.94c.12-.32.4-.526.78-.526Zm3.66 9.033c-.06.526-.5.882-1.06.882h-4.7c-.56 0-1-.356-1-.882L1.18 2.61H8.9l-.52 7.456Z"/><path d="M6.12 5.202v2.61c0 .32.22.526.56.526.34 0 .56-.207.56-.526v-2.61c0-.32-.22-.526-.56-.526-.34 0-.56.225-.56.526ZM3.34 4.695c-.34 0-.56.206-.56.526v2.61c0 .32.22.526.56.526.34 0 .56-.207.56-.526v-2.63c-.02-.3-.24-.506-.56-.506ZM5 4.169c-.34 0-.56.207-.56.526v3.643c0 .32.22.526.56.526.34 0 .56-.207.56-.526V4.695c0-.32-.22-.526-.56-.526Z"/></g></svg>