<svg width="60" height="26" xmlns="http://www.w3.org/2000/svg"><g fill="none" fill-rule="evenodd"><g opacity=".66"><path fill="#913A00" d="M1.998 0H58l1.883 3H0z"/><path fill="#FF6500" d="m29.902 26-28-26h56z"/><path d="m59.883 3-29.98 27L0 3h5.132l24.77 23 24.77-23h5.211Z" fill="#000" opacity=".15"/></g><g fill="#FFF" fill-rule="nonzero"><path d="M24.058 5.7V12h-1.197l-3.14-3.825V12h-1.44V5.7h1.205l3.132 3.825V5.7zM30.78 10.83V12h-4.878V5.7h4.761v1.17h-3.312v1.368h2.925v1.134h-2.925v1.458zM41.723 5.7l-2.06 6.3h-1.567L36.71 7.734 35.28 12h-1.558l-2.07-6.3h1.512l1.422 4.428L36.071 5.7h1.35l1.44 4.464L40.328 5.7z"/></g></g></svg>