<svg width="22" height="10" xmlns="http://www.w3.org/2000/svg" xmlns:xlink="http://www.w3.org/1999/xlink"><defs><path id="a" d="M0 0h5.42v5.724H0z"/></defs><g fill="none" fill-rule="evenodd"><path d="M6.695 9.93a2.642 2.642 0 0 1-1.993-.922 2.642 2.642 0 0 1-1.992.922C1.216 9.93 0 8.648 0 7.07V4.965c0-.417.322-.757.717-.757.396 0 .718.34.718.757v2.061c0 .738.549 1.362 1.223 1.39l.052.001c.693 0 1.264-.593 1.275-1.324V4.963c0-.417.322-.756.718-.756.395 0 .716.34.717.756v2.132c.009.725.58 1.321 1.275 1.321l.052-.001c.674-.028 1.223-.652 1.223-1.39v-2.06c0-.418.322-.758.718-.758.395 0 .717.34.717.757v2.107c0 1.577-1.216 2.86-2.71 2.86M11 9.93c-.396 0-.718-.34-.718-.757 0-.418.322-.758.717-.758h1.952c.699 0 1.29-.58 1.316-1.291a1.379 1.379 0 0 0-.35-.981 1.233 1.233 0 0 0-.907-.42h-2.012c-.395-.001-.716-.34-.716-.758 0-.417.321-.756.716-.757l1.996-.001h.021c.341-.004.664-.153.903-.42a1.38 1.38 0 0 0 .35-.98c-.027-.713-.618-1.292-1.317-1.292H11c-.395 0-.717-.34-.717-.757 0-.418.322-.758.717-.758h1.995c1.494 0 2.709 1.284 2.709 2.862 0 .806-.32 1.565-.874 2.103.553.538.874 1.297.874 2.104 0 1.578-1.215 2.861-2.709 2.861H11Z" fill="#FFF"/><g transform="translate(16.58 4.276)"><mask id="b" fill="#fff"><use xlink:href="#a"/></mask><path d="M4.703 5.724c-.395 0-.717-.34-.717-.758V2.86c0-.742-.572-1.346-1.276-1.346l-.047.001c-.677.026-1.228.65-1.228 1.39v2.061c0 .418-.322.758-.718.758-.395 0-.717-.34-.717-.758V2.86C0 1.283 1.216 0 2.71 0c1.495 0 2.71 1.283 2.71 2.86v2.106c0 .418-.321.758-.717.758" fill="#FFF" mask="url(#b)"/></g></g></svg>