<?xml version="1.0" encoding="UTF-8"?>
<svg width="12px" height="12px" viewBox="0 0 12 12" version="1.1" xmlns="http://www.w3.org/2000/svg" xmlns:xlink="http://www.w3.org/1999/xlink">
    <title>sporran_icons/checkmark copy</title>
    <g id="edit-account-name" stroke="none" stroke-width="1" fill="none" fill-rule="evenodd">
        <g id="KILT-sporran---edit-account-03" transform="translate(-400.000000, -267.000000)" fill="#F2EFEE">
            <g id="Group-2" transform="translate(388.000000, 255.000000)">
                <g id="Fill-1" transform="translate(6.000000, 6.000000)">
                    <path d="M13.0125,10.9874561 L13.0125,6.08311577 C13.0125,5.48311577 12.599625,5.07061577 12,5.07061577 C11.4,5.07061577 10.9875,5.48311577 10.9875,6.08311577 L10.9875,10.9874561 L6.13832207,10.9876436 C5.53832207,10.9876436 5.12582207,11.4001436 5.12582207,12.0001436 C5.12582207,12.6001436 5.53832207,13.0126436 6.13832207,13.0126436 L10.9875,13.0124561 L10.9875,17.9773231 C10.9875,18.5773231 11.4,18.9901981 12,18.9901981 C12.599625,18.9901981 13.0125,18.5023231 13.0125,17.9773231 L13.0125,13.0124561 L17.9823502,13.0126436 C18.5823502,13.0126436 18.9948502,12.6001436 18.9948502,12.0001436 C18.9573502,11.4001436 18.5823502,10.9876436 17.9823502,10.9876436 L13.0125,10.9874561 Z" transform="translate(12.060336, 12.030407) rotate(45.000000) translate(-12.060336, -12.030407) "></path>
                </g>
            </g>
        </g>
    </g>
</svg>